<svg width="280" height="354" viewBox="0 0 280 354" fill="none" xmlns="http://www.w3.org/2000/svg">
<path d="M277.218 94.6656C276.083 88.5047 274.217 82.4376 272.178 76.5164C270.667 72.1068 266.641 70.2512 262.189 71.0852C260.445 71.4084 258.64 71.669 257.017 72.3362C246.917 76.4956 236.674 80.3631 226.807 85.0541C203.645 96.0729 183.038 110.907 165.545 130.099C162.523 133.424 159.805 137.042 157.036 140.596C155.992 141.952 155.495 144.047 154.197 144.797C153.203 145.371 151.347 144.36 149.867 144.057C149.796 144.036 149.704 144.057 149.633 144.036C141.896 142.546 134.199 142.973 126.573 144.766C125.163 145.1 124.524 144.672 123.855 143.557C122.739 141.733 121.685 139.825 120.295 138.23C111.533 128.128 102.447 118.371 92.0928 109.917C70.3503 92.1846 45.7074 80.311 19.4825 71.6064C13.3675 69.5841 8.40846 72.3883 6.55264 78.8307C0.883763 98.5019 -1.5501 118.496 1.02574 138.991C2.95255 154.367 7.69858 168.691 15.923 181.7C25.9424 197.525 38.6289 210.337 55.6254 218.155C56.4773 218.551 57.2683 219.083 58.0998 219.552C55.311 221.95 52.5932 224.118 50.0579 226.495C47.0765 229.268 47.1982 231.353 50.6157 233.625C53.6479 235.648 56.8322 237.472 60.0672 239.15C72.8957 245.77 85.6126 252.661 98.6744 258.748C108.278 263.231 117.608 267.933 125.883 274.729C134.665 281.933 144.624 281.599 153.67 274.667C158.953 270.622 164.561 266.807 170.524 263.982C184.296 257.466 198.26 251.399 211.535 243.789C217.021 240.631 222.649 237.712 228.136 234.553C231.533 232.614 231.928 230.06 229.423 227.016C228.389 225.755 227.142 224.671 225.955 223.566C224.586 222.294 223.166 221.074 221.453 219.552C222.183 219.156 222.507 218.947 222.862 218.791C231.675 214.997 239.25 209.336 246.481 202.967C260.881 190.249 270.698 174.466 275.778 155.847C281.275 135.686 281.021 115.129 277.218 94.6656ZM69.4376 199.328C51.4067 200.913 37.7162 193.094 26.6929 178.886C13.8137 162.29 9.34144 143.098 9.2096 122.416C9.13862 110.73 11.0249 99.315 13.479 87.9626C13.7325 86.7534 13.9151 85.5233 14.199 84.314C14.9495 81.1137 16.8763 79.8419 19.7563 81.3326C24.2691 83.6677 28.9138 86.0132 32.8586 89.2031C54.0738 106.299 69.3159 127.816 76.871 154.607C80.0553 165.897 79.8525 177.416 76.1307 188.643C75.005 192.062 73.1492 195.232 71.4759 198.432C71.2021 198.964 70.1576 199.266 69.4376 199.328ZM128.043 246.145C123.895 241.996 118.642 241.61 113.257 241.152C108.724 240.766 104.11 240.109 99.7595 238.785C91.4032 236.252 85.5416 230.623 82.3877 222.127C82.1241 221.418 81.11 220.73 80.3393 220.553C77.5099 219.927 75.1267 218.603 73.6664 216.049C73.0782 215.017 72.8247 213.475 73.1188 212.359C73.2608 211.796 74.9746 211.4 75.9786 211.379C82.0227 211.265 88.087 210.993 94.1109 211.306C113.004 212.276 125.254 226.891 129.047 243.247C129.3 244.342 129.422 245.457 129.666 246.896C128.875 246.541 128.357 246.458 128.043 246.145ZM142.981 268.495C138.62 271.195 132.485 267.891 131.968 262.637C131.724 260.26 133.235 259.103 134.898 258.311C136.46 257.57 138.255 257.341 139.938 256.893C144.188 257.195 146.713 258.644 147.372 261.407C147.889 263.565 145.972 266.65 142.981 268.495ZM205.876 214.986C204.487 217.769 202.692 220.146 199.152 220.271C198.402 220.303 197.307 221.23 197.013 222.002C192.834 233.135 181.872 240.287 170.453 240.766C165.241 240.985 159.906 240.683 155.14 243.508C153.568 244.446 152.128 245.603 150.404 246.802C150.688 241.319 152.716 236.617 154.836 232.009C160.616 219.5 170.849 213.433 183.728 211.41C186.101 211.035 188.545 210.983 190.958 210.941C195.065 210.879 199.173 210.921 203.29 210.941C205.947 210.941 207.083 212.578 205.876 214.986ZM265.972 153.21C261.561 166.345 254.928 178.125 244.97 187.59C237.1 195.075 227.537 199.068 216.788 199.85C215.662 199.933 214.526 199.902 213.401 199.996C207.914 200.475 209.304 201.153 206.707 195.888C198.899 180.032 199.649 163.885 205.247 147.622C212.457 126.679 224.606 109.177 240.599 94.3737C245.964 89.4116 251.774 85.1271 258.366 82.0206C262.139 80.238 264.187 80.9886 265.353 85.1063C268.751 97.0216 270.535 109.197 270.282 123.125C270.515 132.403 269.41 142.984 265.972 153.21Z" fill="white"/>
<path d="M198.179 85.6275C193.625 92.7787 187.794 99.1586 182.064 105.434C171.122 117.422 161.032 129.974 154.501 145.152C149.735 156.223 148.964 167.898 150.232 179.782C150.546 182.795 151.246 185.776 151.773 188.768C151.621 188.873 151.469 188.977 151.317 189.081C146.611 183.525 141.743 178.104 137.241 172.381C130.892 164.281 126.359 155.066 123.662 145.068C120.376 132.934 119.788 120.56 121.989 108.113C123.865 97.4698 126.664 87.1807 132.13 77.7778C139.401 65.2683 149.065 54.8124 158.588 44.1794C165.352 36.6215 172.075 28.9699 178.16 20.8283C182.561 14.9176 185.594 8.04777 185.502 0C187.977 4.38875 190.512 8.7358 192.895 13.1767C198.077 22.8819 202.651 32.8374 204.527 43.8771C207.012 58.5444 206.281 72.8991 198.179 85.6275Z" fill="white"/>
<path d="M80.1795 320H94.5429V353.855H85.6376V327.835L72.0881 353.855H69.4548L55.9053 327.835V353.855H47V320H61.3634L70.7475 338.378L80.1795 320Z" fill="white"/>
<path d="M99.2253 320H113.732L129.053 345.972V320H138.054V353.807H123.404L108.226 327.835V353.807H99.2253V320Z" fill="white"/>
<path d="M175.841 320H190.204V353.807H181.299V327.835L167.75 353.807H165.116L151.567 327.835V353.807H142.662V320H157.025L166.409 338.378L175.841 320Z" fill="white"/>
<path d="M222.85 320.193L233 354H223.903L221.557 346.165H203.555L201.209 354H192.112L202.262 320.193H222.85ZM216.003 327.593H209.109L205.949 338.33H219.163L216.003 327.593Z" fill="white"/>
</svg>
